<svg width="26" height="26" viewBox="0 0 26 26" fill="none" xmlns="http://www.w3.org/2000/svg">
<path fill-rule="evenodd" clip-rule="evenodd" d="M7.04167 4.0625C6.47198 4.0625 5.6875 4.74408 5.6875 6.03571V19.9643C5.6875 21.2559 6.47198 21.9375 7.04167 21.9375H14.6205C15.0692 21.9375 15.433 22.3013 15.433 22.75C15.433 23.1987 15.0692 23.5625 14.6205 23.5625H7.04167C5.21812 23.5625 4.0625 21.7497 4.0625 19.9643V6.03571C4.0625 4.25034 5.21812 2.4375 7.04167 2.4375H14.625C15.0737 2.4375 15.4375 2.80127 15.4375 3.25C15.4375 3.69873 15.0737 4.0625 14.625 4.0625H7.04167Z" fill="white"/>
<path fill-rule="evenodd" clip-rule="evenodd" d="M14.6579 8.63381C14.9752 8.95111 14.9752 9.46556 14.6579 9.78286L11.4407 13L14.6579 16.2171C14.9752 16.5344 14.9752 17.0489 14.6579 17.3662C14.3406 17.6835 13.8261 17.6835 13.5088 17.3662L9.71714 13.5745C9.39984 13.2572 9.39984 12.7428 9.71714 12.4255L13.5088 8.63381C13.8261 8.31651 14.3406 8.31651 14.6579 8.63381Z" fill="white"/>
<path fill-rule="evenodd" clip-rule="evenodd" d="M9.47917 12.9955C9.47917 12.5468 9.84294 12.183 10.2917 12.183H21.125C21.5737 12.183 21.9375 12.5468 21.9375 12.9955C21.9375 13.4442 21.5737 13.808 21.125 13.808H10.2917C9.84294 13.808 9.47917 13.4442 9.47917 12.9955Z" fill="white"/>
</svg>
