<svg width="18" height="14" viewBox="0 0 18 14" fill="none" xmlns="http://www.w3.org/2000/svg">
<path fill-rule="evenodd" clip-rule="evenodd" d="M0.0625 1.04199C0.0625 0.593261 0.426269 0.229492 0.875 0.229492H17.125C17.5737 0.229492 17.9375 0.593261 17.9375 1.04199C17.9375 1.49072 17.5737 1.85449 17.125 1.85449H0.875C0.426269 1.85449 0.0625 1.49072 0.0625 1.04199Z" fill="#231F20"/>
<path fill-rule="evenodd" clip-rule="evenodd" d="M0.0625 7.00033C0.0625 6.5516 0.426269 6.18783 0.875 6.18783H17.125C17.5737 6.18783 17.9375 6.5516 17.9375 7.00033C17.9375 7.44906 17.5737 7.81283 17.125 7.81283H0.875C0.426269 7.81283 0.0625 7.44906 0.0625 7.00033Z" fill="#231F20"/>
<path fill-rule="evenodd" clip-rule="evenodd" d="M0.0625 12.9587C0.0625 12.5099 0.426269 12.1462 0.875 12.1462H17.125C17.5737 12.1462 17.9375 12.5099 17.9375 12.9587C17.9375 13.4074 17.5737 13.7712 17.125 13.7712H0.875C0.426269 13.7712 0.0625 13.4074 0.0625 12.9587Z" fill="#231F20"/>
</svg>
